<svg id="Calque_2" data-name="Calque 2" xmlns="http://www.w3.org/2000/svg" width="160.198" height="158.596" viewBox="0 0 160.198 158.596">
  <g id="Calque_1" data-name="Calque 1">
    <path id="Tracé_43" data-name="Tracé 43" d="M35,68.946a.176.176,0,0,0,0,.128s1.506,1.6,3.316,3.38a38.813,38.813,0,0,0,3.412,3.2,37.247,37.247,0,0,0,3.444-3.3c1.7-1.7,3.188-3.3,3.188-3.3a.144.144,0,0,0-.1-.112C48.157,68.9,35,68.882,35,68.946Z" transform="translate(21.065 41.478)" fill="#e84b20"/>
    <path id="Tracé_44" data-name="Tracé 44" d="M80.1,0C35.868,0,0,35.5,0,79.3s35.868,79.3,80.1,79.3,80.1-35.5,80.1-79.3S124.329,0,80.1,0ZM100.22,37.711l2.579-1.266,3.2-1.6,3.428-1.7,2.179-1.073h.176s.657-.336,1.394-.689l1.394-.689a.544.544,0,0,1,.192-.1l1.6-.785,4.934-2.419a1.473,1.473,0,0,1,.288-.16,4.086,4.086,0,0,1,.384.8,1.25,1.25,0,0,0,.24.529c.048.1,0,.16,0,.224a.208.208,0,0,1-.144.08l-.288.1-.433.192-.465.208-.529.224-.3.112h-.176a4.421,4.421,0,0,1-.753.32l-.224.1-.5.224-.465.192-.417.176-.465.192-.513.224-.529.224-.24.1h-.224l-.481.208-.513.224a1.169,1.169,0,0,1-.3.112l-.192.08a4.277,4.277,0,0,1-.737.32h-.192l-.449.208a2.98,2.98,0,0,0-.5.224l-.24.08-.256.1a5.062,5.062,0,0,1-.8.352H110.7l-.5.224-.513.224-.465.192-.465.192h-.176a.994.994,0,0,0-.3.112l-.529.224-.417.176-.449.192c-.545.208-.913.384-1.121.465l-.465.192-.417.176-1.073.449-.368.16a3.476,3.476,0,0,1-.417.176l-.577.24-.513.224-.465.208-.256.08a.545.545,0,0,0-.24.1c-.272.144-.881.4-1.378.593-.176,0-.288,0-.24-.112A5,5,0,0,1,100.22,37.711ZM70.7,43.99l.657-.144.8-.176.8-.176.561-.112.417-.1a3.765,3.765,0,0,1,.561-.128l.577-.112.785-.176,1.89-.417.9-.192.8-.192.609-.112.513-.112.32-.08h.368l.529-.128.7-.144.913-.208,1.6-.368.657-.128.9-.208.833-.176,1.362-.352.577-.112.641-.144a2.483,2.483,0,0,1,.5-.1l.32-.08a1.762,1.762,0,0,1,.417-.1,1.794,1.794,0,0,0,.849-.288,2.291,2.291,0,0,0,0-.465,1.041,1.041,0,0,1,0-.384,2.723,2.723,0,0,1,.625,0h.593c.016,0,0,3.877,0,8.539v8.507a3.108,3.108,0,0,1-1.153,0,.519.519,0,0,1,0-.4c.08-.272,0-.529-.609-.657l-.625-.144a1.762,1.762,0,0,1-.417-.1l-.449-.1-.577-.112-.833-.192-.7-.16-.561-.112-1.346-.3c-.529-.128-.641-.128-.689,0a3.413,3.413,0,0,0-.16.673,6.1,6.1,0,0,1-.929,2.323c-.256.4-.945,1.137-1.025,1.073a.561.561,0,0,1-.08-.288,4.182,4.182,0,0,0-.3-.961v-.192l.224-.336a5.479,5.479,0,0,0,.625-1.169,4.534,4.534,0,0,0,.128-1.41.384.384,0,0,0-.368-.224,2.13,2.13,0,0,1-.481-.1l-1.81-.4-.865-.192-.593-.112-.433-.1c-.224,0-.513-.144-1.346-.3l-.641-.128-.8-.176-.865-.208c-.609-.144-.737-.128-.865.192a3.845,3.845,0,0,0-.272,1.6,2.771,2.771,0,0,0,.1.961v.224c-.112.128-.208.256-.32.368a5.722,5.722,0,0,0-.5.593c-.1.144-.208.272-.24.272a3.877,3.877,0,0,1-.513-1.826,6.552,6.552,0,0,1,.24-2.051c.112-.368.16-.689.1-.737A7.609,7.609,0,0,0,72.3,50.3l-.689-.16-1.6-.352-.785-.176c-.449-.112-.5-.1-.593,0s-.1.112-.609.112-.529,0-.577-.1,0-5.335,0-5.415a1.41,1.41,0,0,1,.577,0c.481,0,.513,0,.625.112s.192.16.657,0l.609-.128h.368Zm11.31,13.985a2.707,2.707,0,0,1-.128,1.185c-.16.449-.5,1.346-.609,1.6a1.63,1.63,0,0,0-.128.336,4.4,4.4,0,0,1-.176.465,4.409,4.409,0,0,0-.176.465,3.519,3.519,0,0,1-.144.336c0,.144-.721,1.81-.977,2.5a1.862,1.862,0,0,1-.24.609c-.064.144-.16.4-.224.561a4.084,4.084,0,0,1-.16.384,2.29,2.29,0,0,0-.128.352,1.591,1.591,0,0,1-.192.5c-.272.641-.32.785-.384.961s-.1.256-.128.336-.529,1.33-.785,2a1.647,1.647,0,0,1-.24.593l-.176.465a1.723,1.723,0,0,1-.224.513c-.08.16,0,.24-.128.368a.561.561,0,0,1-.1.224l-.1.24a1.345,1.345,0,0,1,0,.272c-.176.368-.352.833-.817,2.051-.176.465-.368.929-.417,1.041a.929.929,0,0,0-.1.272,3.2,3.2,0,0,1-.224.481,4.069,4.069,0,0,1-4.421,2.083A9.788,9.788,0,0,1,67.764,78l-1.2-.577-1.025-.481-1.121-.529-1.266-.609-1.121-.545-1.153-.545L58.52,73.579l-1.137-.545-1.137-.545-2.627-1.25c-.352-.176-.721-.368-1.073-.577a4.1,4.1,0,0,1-1.6-2.275,2.948,2.948,0,0,1-.128-1.057,3.2,3.2,0,0,1,.3-1.6,4.117,4.117,0,0,1,2.547-2.355,2.772,2.772,0,0,1,1.2-.112c1.073,0,1.025,0,2.627.753l1.2.577,1.105.529,1.073.561,1.153.545L64.448,67.4l1.169.561,1.2.577,1.33.641.833.384c.112,0,.208-.176.577-1.169a10.478,10.478,0,0,1,.417-1.025,1.6,1.6,0,0,0,.08-.256.8.8,0,0,1,0-.208,2.977,2.977,0,0,0,.16-.4l.208-.513a1.472,1.472,0,0,1,.176-.465,2.322,2.322,0,0,1,.144-.352s0-.112,0-.176V64.8s.24-.577.449-1.105.4-.993.417-1.057a.44.44,0,0,1,.112-.288c.112-.112.112-.3.384-.961a2.117,2.117,0,0,1,.192-.5,1.955,1.955,0,0,1,.16-.384,1.106,1.106,0,0,0,0-.208,1.345,1.345,0,0,1,0-.272c.1-.192.16-.368.4-.961l.513-1.33.513-1.3a.753.753,0,0,0,.1-.24A5.35,5.35,0,0,1,74.7,55.14a4.6,4.6,0,0,1,2.259-1.217,5.623,5.623,0,0,1,1.794.1,5.51,5.51,0,0,1,.849.336l.272.144a4.805,4.805,0,0,1,.609.529,3.765,3.765,0,0,1,1.057,1.7,2.755,2.755,0,0,1,.465,1.25ZM41.475,40.947a11.038,11.038,0,0,1,.913-2.8,10.878,10.878,0,0,1,1.41-2.291A11.6,11.6,0,0,1,48.6,32.28l.465-.176a11.038,11.038,0,0,1,2.787-.561,11.887,11.887,0,0,1,4.614.577,7.258,7.258,0,0,1,.913.368.753.753,0,0,0,.689,0,.561.561,0,0,1,.224-.1.561.561,0,0,0,.208,0l.945-.352.481-.176a3.2,3.2,0,0,1,.513-.176l.417-.144c.32-.128,1.282-.417,1.922-.593a21.017,21.017,0,0,1,2.419-.529l.657-.128a3.524,3.524,0,0,1,.577,0c2.083-.16,3.044,0,3.38.673.128.256,0,.721-.368,1.218a10.7,10.7,0,0,1-2.563,2.227l-.577.384-.449.256-.384.224a37.439,37.439,0,0,1-4.566,2.211l-.384.16-.368.144-1.057.384-.561.208c-.433.128-.7.224-.865.288a1.169,1.169,0,0,1-.336.1l-.272.08c-.977.3-1.986.545-3,.753l-.513.1a16.019,16.019,0,0,1-2.323.224,4.037,4.037,0,0,1-1.6-.256c-.208-.128-.384-.1-.368,0a2.907,2.907,0,0,0,1.6.833,12.015,12.015,0,0,0,2.515.08l1.33-.128.817-.1a3.6,3.6,0,0,1,.577-.1l.817-.144a1.778,1.778,0,0,1,.4,0,2.483,2.483,0,0,0,.5-.1l.609-.144,1.41-.336,1.33-.384.593-.176c.32-.1.625-.192.993-.336h.32c.128,0,.16,0,.272.288a10.347,10.347,0,0,1,.4,1.25,1.442,1.442,0,0,0,.1.352,3.285,3.285,0,0,1,.112.545,3.859,3.859,0,0,0,.112.593,15.763,15.763,0,0,1,0,3.2,1.012,1.012,0,0,1-.112.577,3.2,3.2,0,0,1-.112.561l-.144.481a10.27,10.27,0,0,1-.5,1.394s-.112.224-.192.417a12.127,12.127,0,0,1-3.733,4.213l-.481.32a13.793,13.793,0,0,1-1.6.849l-.224.08a6.777,6.777,0,0,1-1.009.336l-.577.144a9.067,9.067,0,0,1-2.515.224,9.211,9.211,0,0,1-2.387-.224,10.765,10.765,0,0,1-2.419-.785l-.465-.208-.3-.16-.529-.224a11.983,11.983,0,0,1-3.62-3.556,2.946,2.946,0,0,0-.24-.368,4.935,4.935,0,0,1-.32-.577c-.128-.288-.272-.577-.3-.641a2.467,2.467,0,0,1-.128-.3,1.906,1.906,0,0,0-.128-.32.449.449,0,0,1,0-.208.977.977,0,0,0-.08-.192,2.435,2.435,0,0,1-.144-.449,3.73,3.73,0,0,0-.128-.609,8.01,8.01,0,0,1-.256-2.611A7.914,7.914,0,0,1,41.475,40.947ZM78.16,109.223a1.97,1.97,0,0,1-1.234,1.057,10.364,10.364,0,0,1-2.339,0,19.517,19.517,0,0,0-2.163,0c-.128,0-8.01,7.882-8.234,8.17l-.1.128,5.447,5.447c5.927,5.943,5.591,5.575,5.527,6.1a.9.9,0,0,1-.561.753.449.449,0,0,0-.24.128h-.256a.545.545,0,0,0-.224-.128,72.364,72.364,0,0,1-5.623-5.463c-3.2-3.2-5.431-5.383-5.479-5.383s-1.217,1.073-5.511,5.367-5.447,5.415-5.607,5.479a.433.433,0,0,0-.208.128H51.1a.448.448,0,0,0-.192-.128.913.913,0,0,1-.561-.5,1.314,1.314,0,0,1,0-.785s2.4-2.5,5.463-5.559,5.431-5.447,5.431-5.495-1.858-1.922-4.133-4.2l-4.133-4.117h-4.47l-.144-.352c-.08-.176-.16-.4-.208-.481a4.647,4.647,0,0,1-.176-.433c-.449-1.073-.7-1.7-.833-1.954l-.256-.609c-.08-.224-.256-.641-.368-.9l-.3-.737a.817.817,0,0,0-.144-.288v-.112a1.057,1.057,0,0,0-.1-.32,3.732,3.732,0,0,1-.224-.529c-.08-.144-.144-.336-.192-.417a7.876,7.876,0,0,1-.32-.753c-.128-.336-.272-.657-.288-.7a4.534,4.534,0,0,1-.224-.529,4.452,4.452,0,0,0-.208-.5,1.729,1.729,0,0,1-.128-.3l-.32-.8c-.128-.3-.288-.657-.336-.8l-.224-.5a1.714,1.714,0,0,1-.112-.3.592.592,0,0,0,0-.176l-.208-.513c-.1-.192-.176-.4-.208-.465l-.192-.465c-.08-.192-.176-.417-.224-.5a.9.9,0,0,1,0-.192,2.34,2.34,0,0,0-.112-.3c-.128-.272-.176-.4-.641-1.6-.176-.433-.336-.817-.368-.865a4.533,4.533,0,0,1-.224-.529c-.1-.256-.192-.481-.208-.513a2.132,2.132,0,0,1-.144-.336c-.128-.3-.352-.865-.481-1.121a3.477,3.477,0,0,0-.176-.417,2.933,2.933,0,0,0-.224-.513,1.121,1.121,0,0,1-.1-.3l-.08-.192s-.128-.272-.192-.433c-.352-.849-.577-1.378-.641-1.506a.593.593,0,0,1-.08-.176.993.993,0,0,0-.112-.3l-.336-.336-.176-.417-.417-.993a3.925,3.925,0,0,0-.192-.449l-.208-.513-.24-.577a.865.865,0,0,1-.08-.176s-.352-.9-.513-1.25l-.176-.4-.224-.529a.994.994,0,0,1-.112-.3.977.977,0,0,0,0-.192l-.192-.449c-.08-.176-.16-.384-.208-.465a3.508,3.508,0,0,1-.3-1.153,2.067,2.067,0,0,1,1.6-1.954,2.563,2.563,0,0,1,1.25.128c.561.256.817.593,1.218,1.6.08.176.16.384.192.465s.288.657.449,1.089l.208.481a2.371,2.371,0,0,1,.192.465c0,.16.128.3.208.465a.576.576,0,0,1,0,.176,1.028,1.028,0,0,0,.128.32l.224.513a1.266,1.266,0,0,0,.192.465l.176.417.224.513a2.339,2.339,0,0,1,.112.3.9.9,0,0,0,0,.192s.144.3.224.5l.192.465c.144.32.272.641.417,1.009a3.86,3.86,0,0,0,.224.513l.176.4a1.266,1.266,0,0,0,.192.465c.032.08.288.657.449,1.089a4.807,4.807,0,0,0,.208.481l.192.465c0,.144.128.3.192.465a.5.5,0,0,1,.08.16,1.087,1.087,0,0,0,.112.32,4.037,4.037,0,0,1,.224.513c.08.176.16.384.192.465s.112.272.176.417l.224.529a.993.993,0,0,1,.112.3.977.977,0,0,0,.08.192s.144.288.224.5l.192.465c.144.32.272.641.417,1.009a5.27,5.27,0,0,0,.224.513l.16.4c.08.176.16.384.192.465s.256.593.449,1.073l.16.384a3.861,3.861,0,0,1,.224.513,1.387,1.387,0,0,0,.24.577.529.529,0,0,1,.08.192.753.753,0,0,0,.1.24l.192.433c.32.8.545,1.346.641,1.6l.1.272a.577.577,0,0,0,0,.176s.144.3.224.5.192.449.224.529a.9.9,0,0,1,.176.016c.1.24.208.481.32.721a.977.977,0,0,1,.08.192.833.833,0,0,0,.1.256l.224.513a1.266,1.266,0,0,0,.192.465c.032.08.112.272.192.433l.24.593a3.2,3.2,0,0,1,.128.352.4.4,0,0,0,.144.176l.144.128H76.895l.336.16a2.066,2.066,0,0,1,.993.993,1.49,1.49,0,0,1,.144.833A1.266,1.266,0,0,1,78.16,109.223Zm32.985,10.237a6.3,6.3,0,0,1-2.355,4,6.632,6.632,0,0,1-2.083,1.089,7.881,7.881,0,0,1-1.842.272,6.872,6.872,0,0,1-1.81-.272.754.754,0,0,0-.256,0,4.98,4.98,0,0,1-.945-.417,6.968,6.968,0,0,1-2.4-2.179c-2.371-3.2-4.037-5.447-5.927-8.01l-3.7-5.014-.673-.9-2.836-3.8a3.733,3.733,0,0,0-.689-.817H60.875a9.868,9.868,0,0,1-3.476-.481,6.408,6.408,0,0,1-.881-.433,11.774,11.774,0,0,1-2.419-1.842,14.658,14.658,0,0,1-2.307-2.948l-.529-1.089c-.689-1.346-1.362-2.787-1.874-3.941l-.417-.945c-.144-.336-.368-.881-.657-1.6-.16-.433-.352-.881-.384-.993a2.981,2.981,0,0,0-.16-.4,14.486,14.486,0,0,1-.529-1.6,10.251,10.251,0,0,0-.336-1.089l-.192-.609a3.691,3.691,0,0,0-.192-.689,4.291,4.291,0,0,1-.112-.433,1.169,1.169,0,0,0-.08-.32l-.144-.529a2.488,2.488,0,0,0-.128-.577c-.1-.417-.256-1.137-.368-1.746a6.13,6.13,0,0,0-.208-1.025c-.064-.288,0-.433-.1-.657s0-.32,0-.481a6.407,6.407,0,0,1-.128-.8,2.491,2.491,0,0,0-.128-.945c-.08-.641-.208-1.826-.256-2.691,0-.368-.1-1.105-.144-1.6s-.08-1.474-.08-2.932a13.553,13.553,0,0,1,.112-2.675,19.224,19.224,0,0,1,.481-2.115,4.421,4.421,0,0,1,.128-.433,5.4,5.4,0,0,1,.224-.593,9.844,9.844,0,0,1,.449-.993A10.814,10.814,0,0,1,46.81,61.9a11.631,11.631,0,0,1,3.3-3.2c.272-.16,1.2-.641,1.6-.8a6.809,6.809,0,0,1,1.858-.513,5.094,5.094,0,0,1,1.842,0,5.831,5.831,0,0,1,2.387.881,10.317,10.317,0,0,1,3.829,4.518,6.312,6.312,0,0,1,.753,2.387,7.512,7.512,0,0,1-.737-.336l-1.234-.593-1.2-.577a22.077,22.077,0,0,0-2.868-1.3,5.126,5.126,0,0,0-2.307-.16,5.223,5.223,0,0,0-3.2,1.858,5.943,5.943,0,0,0-.689,1.089.673.673,0,0,1-.1.224,1.6,1.6,0,0,0-.144.352,2.467,2.467,0,0,1-.112.433,3.2,3.2,0,0,0-.1.769A5.094,5.094,0,0,0,51.2,71a7.129,7.129,0,0,0,2.387,1.49l1.153.545c.336.16.785.384,1.025.481l1.089.529,1.282.609,1.121.545,1.025.481,1.346.641,1.234.593a20.136,20.136,0,0,1,1.81.913.849.849,0,0,1,.1.3,10.131,10.131,0,0,0,.3,1.426.86.86,0,0,0,.112.545l.112.481a8.851,8.851,0,0,0,.3,1.217,3.49,3.49,0,0,0,.192.721c.08.24.16.593.192.737a4.806,4.806,0,0,0,.144.513,2.934,2.934,0,0,0,.176.593c.176.593.352,1.153.417,1.33l.224.673a10.155,10.155,0,0,0,.417,1.169,1.492,1.492,0,0,1,0,.208,1.251,1.251,0,0,0,0,.224l.144.336A16.963,16.963,0,0,0,68.18,90a1.73,1.73,0,0,1,.128.3.657.657,0,0,0,.192.272c.144.1.24.1,10.749.112,9.612,0,10.653,0,10.925.1l.561.144a4.406,4.406,0,0,1,.945.4,5.814,5.814,0,0,1,1.266.8,12.816,12.816,0,0,1,2.147,2.6l.929,1.25,1.217,1.6,2.083,2.739,1.714,2.307.913,1.234.929,1.25.929,1.234.913,1.234,4.213,5.687a12.96,12.96,0,0,1,1.778,2.675,6.408,6.408,0,0,1,.433,3.524Zm11.022-53.778-.224.5a2.835,2.835,0,0,1-.368.769s-.577-.256-1.25-.593-1.874-.945-2.723-1.346l-7.065-3.556c-2.531-1.266-5.254-2.611-9.612-4.806l-1.33-.641s-.16-.176-.128-.24a.16.16,0,0,1,.112,0,10.749,10.749,0,0,1,1.25.513l.561.24.913.368.465.208.465.192.609.256.9.368.449.192,1.506.641a1.841,1.841,0,0,0,.272.1h.192a3.2,3.2,0,0,0,.449.208,2.979,2.979,0,0,1,.5.224.849.849,0,0,0,.24,0,3.332,3.332,0,0,1,.689.3l.24.1a1.6,1.6,0,0,1,.288.112l.529.224.417.176,1.041.433a4.224,4.224,0,0,1,.4.176l.529.224.529.208.4.176.529.224.224.1a6.024,6.024,0,0,1,.737.32h.176l.272.433.529.224.417.176a9.1,9.1,0,0,1,1.057.449l.384.16.529.224.529.208.384.16,1.073.449.4.176.513.224.657.256C122.247,65.3,122.311,65.377,122.167,65.681Zm2.787-11.967a1.6,1.6,0,0,0-.144.657,1.7,1.7,0,0,1-.128.641,3.749,3.749,0,0,1-1.186-.192l-.72-.144-.561-.1-.7-.112-.689-.128-1.442-.288-.481-.1a10.494,10.494,0,0,1-1.6-.32,3.06,3.06,0,0,0-.529-.1,2.483,2.483,0,0,1-.5-.1c-.368-.08-.849-.192-1.6-.32l-1.6-.32-1.378-.272-.7-.128-.609-.128-1.266-.256-1.6-.32-1.6-.32a2.884,2.884,0,0,0-.513-.1l-.561-.112-1.6-.32a4.2,4.2,0,0,1-.481-.1l-.737-.144-1.6-.3c-.192,0-.3-.176-.192-.256h.128a5,5,0,0,0,.7.1l.833.128h.561a4.47,4.47,0,0,1,.689.1l.689.1.753.1.913.128.673.1.689.08.753.112a4.948,4.948,0,0,0,.721.1,5.039,5.039,0,0,1,.9.128l.753.1a3.2,3.2,0,0,1,.545.08l.849.112.865.112.529.08.945.128,1.986.256.993.16h.561l.737.1.9.128.721.1a5.318,5.318,0,0,0,.7.1l.7.1a5.318,5.318,0,0,0,.7.1l.961.128.977.144c1.121.16,1.121.16,1.121.32a.288.288,0,0,1,.176.288ZM124.394,40.9l-.913.128-.689.1-.817.1c-1.474.224-1.97.288-2.291.32l-.545.08c-.112,0-.481.08-.849.112l-.849.128a4.2,4.2,0,0,1-.561,0,5.847,5.847,0,0,0-.737.112l-.689.1-2.259.32-.817.1a4.663,4.663,0,0,0-.689.1l-.913.112a1.423,1.423,0,0,0-.689.112l-.689.08-.753.112-.737.1-.7.1-.689.1-2.259.32-.8.1-.769.1c-1.474.224-1.922.3-2.083.3s-.224-.128-.144-.208a8.506,8.506,0,0,1,1.41-.3l.673-.128a2.131,2.131,0,0,1,.481-.1,3.059,3.059,0,0,0,.529-.1c.577-.128,1.121-.256,1.6-.32l1.6-.32,1.266-.256,1.6-.336,1.6-.32a3.108,3.108,0,0,0,.529-.112l.417-.08a5.126,5.126,0,0,0,.657-.128l.7-.144.737-.144.993-.192a3.62,3.62,0,0,0,.593-.128h.368l.657-.128,1.474-.288.545-.112.368-.08.641-.128.7-.144,1.282-.24,1.6-.32.689-.144.368-.08c.128,0,.192.144.192.384a2.451,2.451,0,0,0,.192.961v.16c0,.064-.112.192-.625.224Z" fill="#e84b20"/>
  </g>
</svg>
