<svg xmlns="http://www.w3.org/2000/svg" width="162.973" height="85.899" viewBox="0 0 162.973 85.899">
  <g id="Calque_2" data-name="Calque 2" transform="translate(-0.973 0)">
    <g id="Calque_1" data-name="Calque 1" transform="translate(0 0)">
      <g id="test" transform="translate(0.973)">
        <path id="Tracé_8" data-name="Tracé 8" d="M74.743.1A14.807,14.807,0,0,0,70.713.6,5.7,5.7,0,0,1,68.9.974a9.258,9.258,0,0,0-2.181.526c-1.509.545-1.83,1.149-.9,1.762.5.331.74.331,3.768-.3a46.116,46.116,0,0,1,15.07-.789,27.259,27.259,0,0,1,7.389,2.181c.565.331,1.285.74,1.587.9a18,18,0,0,1,3.553,3.028c1.392,1.762,2.59,4.1,2.59,5.062a3.534,3.534,0,0,0,.37,1.266c.545,1.051.545,6.523,0,7.457a2.648,2.648,0,0,0-.389,1.139c0,.633-2.142,4.751-3.534,6.815-.613.925-1.353,2.005-1.636,2.424-.584.915-1.85,2.706-2.921,4.1-.915,1.2-3.446,4.712-3.894,5.4-.175.292-.789,1.09-1.353,1.84-1.373,1.782-1.324,2.307.136,2.025.827-.175,4.507-4.8,9.735-12.344a44.843,44.843,0,0,0,5.3-9.171c1.684-5.325.857-12.169-2.025-16.268a19.85,19.85,0,0,0-4.576-4.313c-.458-.243-1.373-.72-2.025-1.09a5.461,5.461,0,0,0-1.509-.7,4.079,4.079,0,0,1-1.139-.487C87.769.253,82.064-.224,74.743.1Z" transform="translate(-2.701 0)" fill="#e84b20"/>
        <path id="Tracé_9" data-name="Tracé 9" d="M17.55,2.279c-11.381,0-16.083.127-16.307.3S1,7.682,1,31.115c0,30.958-.068,29.206,1.2,28.6l.545-.273V32.186c0-25.059,0-27.259.37-27.522s3.164-.321,16.18-.37c10.358,0,16.55,0,17.923.175A19.13,19.13,0,0,1,47.33,8.636a16.433,16.433,0,0,1,5.4,7,11.225,11.225,0,0,1,1.246,4.576c.37,3.972-.224,7.107-1.791,9.589-.74,1.178-.759,1.636-.127,2.638,3.5,5.588,2.375,13.912-2.638,19.217-1.567,1.674-3.972,3.573-4.8,3.768a3.232,3.232,0,0,0-1.071.565,2.21,2.21,0,0,1-.808.419,5.033,5.033,0,0,0-1.236.428c-1.83.808-4.186.974-12.948.974s-9.025,0-9.025.974.195.886,9.735.886c8.956,0,9.2,0,11.225-.516,3.894-.974,5.082-1.509,7.681-3.339a18.77,18.77,0,0,0,7.788-12.928,23.939,23.939,0,0,0,0-6.3,25.594,25.594,0,0,0-2.074-4.663c-.321-.613-.3-.7.789-2.921,1.353-2.7,1.636-4.293,1.441-8.392a14.34,14.34,0,0,0-1.577-6.4A26.675,26.675,0,0,0,50.037,8.14,19.393,19.393,0,0,0,37.2,2.552c-1.382-.127-2.755-.234-3.057-.282S26.4,2.25,17.55,2.279Z" transform="translate(-0.999 -0.059)" fill="#e84b20"/>
        <path id="Tracé_10" data-name="Tracé 10" d="M112.716,2.278c-.876.107-1.2.516-1.11,1.3l.058.613,25.312.107c13.912.068,25.312.127,25.312.175a1.782,1.782,0,0,1,0,.458c0,.234-.419.691-1.071,1.129-4.186,2.921-8.372,5.715-9.92,6.737-.974.652-4.293,2.862-7.321,4.868s-6.737,4.537-8.265,5.559L131.33,26.2c-3.2,2.151-5.52,3.7-12.734,8.479-1.947,1.285-4.274,2.872-6.6,4.576a1.246,1.246,0,0,0-.506,1.2,1.655,1.655,0,0,0,.243.974,4.021,4.021,0,0,0,1.674-.876c1.139-.789,16.336-11.011,18.682-12.559,3.69-2.444,7.087-4.692,7.525-4.994,1.2-.847,8.918-6.036,10.134-6.815.72-.477,1.811-1.2,2.4-1.616s3.748-2.482,6.97-4.644c8.421-5.578,7.525-4.868,7.525-6.085,0-.711-.107-1.149-.37-1.343S161.636,2.219,139.7,2.2C125.255,2.19,113.106,2.21,112.716,2.278Z" transform="translate(-3.924 -0.058)" fill="#e84b20"/>
        <path id="Tracé_11" data-name="Tracé 11" d="M74.664,4.995a38.1,38.1,0,0,0-5.335.974c-.584.156-1.509.389-2.005.545-.876.214-.974.282-.974.974,0,1.4.662,1.421,4.868.195a49.718,49.718,0,0,1,11.342-.545A16.385,16.385,0,0,1,89.6,9.083a11.215,11.215,0,0,1,4.644,4.42c.175.438.458,1.11.633,1.5a10.971,10.971,0,0,1,.341,3.622v2.921l-1.188,2.336c-1.353,2.531-4.079,6.581-9.521,14.058-5.277,7.194-5.423,7.438-4.868,7.876a.857.857,0,0,0,.974.058c.584-.195,1.343-1.09,3.748-4.332.779-1.051,2.414-3.252,3.641-4.868,2.609-3.5,7.37-10.553,8.2-12.14a13.464,13.464,0,0,0,1.373-6.63A15.577,15.577,0,0,0,96,11.926a14.3,14.3,0,0,0-4.147-4.157,13.873,13.873,0,0,1-1.509-.828,2.074,2.074,0,0,0-.876-.38,4.653,4.653,0,0,1-1.334-.594,4.955,4.955,0,0,0-1.85-.545A10.2,10.2,0,0,1,84.263,5.1,46.525,46.525,0,0,0,74.664,4.995Z" transform="translate(-2.729 -0.127)" fill="#e84b20"/>
        <path id="Tracé_12" data-name="Tracé 12" d="M5.993,7.909c-.175.3-.243,8.372-.243,25.9,0,20.795,0,25.575.282,25.876s.458.37.974.243a1.7,1.7,0,0,0,.789-.341c.068-.127.107-11.137.088-24.484,0-18.614,0-24.4.243-24.854a1.577,1.577,0,0,1,.789-.73c.3-.088,6.562-.146,13.863-.146,11.75,0,13.522,0,15.177.341a16.053,16.053,0,0,1,5.169,2.054,18.439,18.439,0,0,1,4.527,4.712,13.143,13.143,0,0,1,1.655,6.114c0,2.833-1.217,6.1-2.833,7.652a2.327,2.327,0,0,0-.652.915,4.449,4.449,0,0,0,.9,1.421,11.2,11.2,0,0,1,2.59,7.087,12.208,12.208,0,0,1-2.989,8.324c-.974,1.11-3.417,3.076-3.836,3.076a2.19,2.19,0,0,0-.74.438,1.947,1.947,0,0,1-.915.428,3.076,3.076,0,0,0-.974.35c-.915.506-5.121.72-12.753.652a65.276,65.276,0,0,0-6.7.136.837.837,0,0,0-.438,1.09.857.857,0,0,0,.35.389c.545.282,14.807.282,17.524,0a15.83,15.83,0,0,0,5.841-1.85,15.576,15.576,0,0,0,6-6.367c.3-.691.7-1.528.876-1.85.545-.974.876-5.335.565-7.214a13.016,13.016,0,0,0-2.482-5.14c-.545-.7-.506-1.266.175-2.161a13.493,13.493,0,0,0,2.239-4.751,15.3,15.3,0,0,0-.759-8.178,16.014,16.014,0,0,0-5.208-6.416,14.788,14.788,0,0,0-5.364-2.541c-1.587-.458-1.947-.458-17.592-.545S6.159,7.471,5.993,7.909Z" transform="translate(-1.125 -0.198)" fill="#e84b20"/>
        <path id="Tracé_13" data-name="Tracé 13" d="M111.823,7.754a1.022,1.022,0,0,0-.088,1.207c.156.214,4.167.282,20.055.3h19.86l.974-.633a2.77,2.77,0,0,0,.974-.847C153.442,7.471,112.174,7.4,111.823,7.754Z" transform="translate(-3.927 -0.199)" fill="#e84b20"/>
        <path id="Tracé_14" data-name="Tracé 14" d="M164.871,9.822c-1.227.876-2.921,2.035-4.576,3.057-1.947,1.266-2.181,1.392-3.164,2.113-.545.389-3.836,2.619-7.321,4.975s-8.83,5.909-11.838,7.954-5.841,3.894-6.347,4.254c-1.373.9-5.491,3.641-6.435,4.313-.477.35-3.612,2.463-6.97,4.712s-6.231,4.254-6.367,4.449c-.389.477-.35,1.548,0,1.694s2.005-.711,2.794-1.392a6.348,6.348,0,0,1,.779-.565c.438-.263,6.172-4.118,11.205-7.564,1.684-1.139,4.449-2.989,6.172-4.118s5.014-3.359,7.3-4.868,5.082-3.427,6.172-4.147,2.921-1.947,4.06-2.745,2.375-1.616,2.745-1.85,2.57-1.7,4.868-3.252,5.1-3.437,6.211-4.186c2.132-1.412,2.551-1.947,2.444-2.852S166.107,9,164.871,9.822Z" transform="translate(-3.926 -0.242)" fill="#e84b20"/>
        <path id="Tracé_15" data-name="Tracé 15" d="M73.192,10.395a4.673,4.673,0,0,0-1.3.38,8.762,8.762,0,0,1-1.947.458c-2.492.389-3.622,1.373-2.444,2.132.516.35.633.35,1.694,0a20.668,20.668,0,0,1,2.667-.584l2.833-.438a37.354,37.354,0,0,1,8.762.136c4.42.828,6.932,3.31,6.951,6.863C90.4,22.068,89.139,24.073,77,40.4a59.083,59.083,0,0,0-3.514,4.994.681.681,0,0,0,.282.613c.876.565,2.093-.652,5.257-5.257.282-.389,1.09-1.48,1.811-2.424s1.947-2.59,2.687-3.641,1.947-2.677,2.57-3.573c6.367-8.7,7.263-11.05,5.754-15.148A6.27,6.27,0,0,0,90.19,13.52c-1.11-1.09-3.5-2.463-4.313-2.463a3.894,3.894,0,0,1-1.227-.438c-.808-.419-1.236-.438-5.7-.389C76.249,10.249,73.669,10.307,73.192,10.395Z" transform="translate(-2.747 -0.27)" fill="#e84b20"/>
        <path id="Tracé_16" data-name="Tracé 16" d="M11.4,13.085c-.058.136-.146,10.641-.195,23.365,0,17.7,0,23.219.224,23.472s.389.331.886.156l.613-.214L13,37.472c0-22.333,0-22.391.5-22.635.312-.175,3.894-.214,12.033-.156,11.215.088,11.682.117,12.841.545a9.161,9.161,0,0,1,5.257,4.186c.662,1.139.7,1.334.7,3.388a6.357,6.357,0,0,1-.458,3.154,9,9,0,0,1-2.833,3.271,9.629,9.629,0,0,0-1.178.7c-1.129.779-3.047.974-11.332.974-4.381,0-8.09.088-8.226.175a1.382,1.382,0,0,0-.058,1.567c.127.088,4.225.156,9.112.175h8.869l1.46.6a7,7,0,0,1,4.663,5.841c.35,3.407-.974,5.734-4.293,7.72-1.178.7-2.463.808-11.205.974-4.556.088-8.411.243-8.548.331a1.1,1.1,0,0,0,0,1.421c.195.195,2.444.253,8.762.253,7.788,0,8.606,0,9.852-.428a12.432,12.432,0,0,0,3.894-1.947,13.769,13.769,0,0,0,2.921-3.894,1.519,1.519,0,0,1,.321-.759c.243-.331.331-1.071.331-2.833a7.954,7.954,0,0,0-.506-3.738,7.2,7.2,0,0,0-3.1-3.534c-1.548-.974-1.606-1.168-.74-1.83a14.165,14.165,0,0,0,2.921-3.067,10.514,10.514,0,0,0,.974-8.372,7.057,7.057,0,0,0-2.229-3.339,10.465,10.465,0,0,0-3.154-2.531L39.1,13l-13.775-.058C15.727,12.871,11.522,12.91,11.4,13.085Z" transform="translate(-1.27 -0.341)" fill="#e84b20"/>
        <path id="Tracé_17" data-name="Tracé 17" d="M111.649,13.172a1.947,1.947,0,0,0,0,.828l.058.506,15.771.058,15.761.049.974-.565c2.054-1.2,2.473-1.178-15.713-1.178C114.2,12.87,111.756,12.909,111.649,13.172Z" transform="translate(-3.927 -0.34)" fill="#e84b20"/>
        <path id="Tracé_18" data-name="Tracé 18" d="M165.26,15.586c-.458.35-2.375,1.7-4.293,2.921L154.2,23.063c-3.894,2.658-7.126,4.79-8.109,5.4-.389.243-1.431.974-2.307,1.528s-1.879,1.3-2.249,1.548c-1.441.974-2.57,1.743-3.378,2.268s-4.868,3.2-5.715,3.8l-3.2,2.2c-1.587,1.071-3.1,2.113-3.378,2.288s-2.921,1.947-5.929,3.894-5.841,3.894-6.3,4.167c-1.528.974-2.074,1.616-2.074,2.424,0,.477.136.8.331.886s2.444-1.3,5.7-3.5c2.989-2.005,8.548-5.754,12.412-8.333s9.638-6.474,12.86-8.655,8.567-5.734,11.858-7.954,6.3-4.225,6.649-4.468,1.509-1.022,2.551-1.7c2.57-1.723,2.794-1.947,2.794-2.921S166.3,14.758,165.26,15.586Z" transform="translate(-3.926 -0.398)" fill="#e84b20"/>
        <path id="Tracé_19" data-name="Tracé 19" d="M75.516,15.324a24.085,24.085,0,0,1-2.619.438c-2.288.263-4.556.974-4.751,1.421a1.12,1.12,0,0,0,.214.74c.419.565,1.947.6,3.252.107,1.071-.419,7.019-.769,9.813-.584,3.067.195,3.894.876,3.768,2.921-.107,1.207-1.09,2.989-3.047,5.481-.9,1.129-2.58,3.4-8.353,11.225-1.791,2.483-3.855,5.189-4.624,6.162C67.6,45.182,67.3,45.942,68.01,46.156c1.12.282,1.441,0,6.1-6.279,1.139-1.528,2.229-2.969,2.4-3.222s1.353-1.85,2.609-3.514,3.057-4.1,3.991-5.452,1.9-2.619,2.122-2.852a15.741,15.741,0,0,0,1.2-1.947c1.09-1.947,1.285-3.816.5-4.955-1.266-1.85-4.186-2.833-8.392-2.813a15.781,15.781,0,0,0-3.028.2Z" transform="translate(-2.764 -0.4)" fill="#e84b20"/>
        <path id="Tracé_20" data-name="Tracé 20" d="M16.461,18c-.282.175-.321,3.154-.341,20.882,0,11.361,0,20.795.058,20.931s.438.282.915.282a1.665,1.665,0,0,0,1.051-.234c.127-.175.214-7.155.214-19.753,0-18.75,0-19.471.389-19.821s1.879-.282,9.794-.166l9.375.146.827.9c1.3,1.421,1.071,2.969-.613,4.147l-.876.6-8.46.068c-7.233,0-8.479.088-8.655.37-.3.477-.263.613.243,1.11s.565.458,8.869.37l8.44-.1,1.217-.613A3.894,3.894,0,0,0,41.4,23.584c.282-2.414-.526-3.894-2.794-5.082l-1.129-.584L27.121,17.86C20.871,17.821,16.636,17.86,16.461,18Z" transform="translate(-1.4 -0.472)" fill="#e84b20"/>
        <path id="Tracé_21" data-name="Tracé 21" d="M110.683,18.053a1.353,1.353,0,0,0-.263.857c0,1.285-.389,1.236,11.819,1.178l11.137-.068,1.032-.565c1.149-.662,1.587-1.12,1.373-1.441S110.985,17.712,110.683,18.053Z" transform="translate(-3.896 -0.47)" fill="#e84b20"/>
        <path id="Tracé_22" data-name="Tracé 22" d="M163.45,22.952c-1.373.974-3.183,2.181-4.03,2.726-3.894,2.531-9.677,6.474-11.011,7.438-.545.389-2.044,1.412-3.378,2.268s-2.745,1.762-3.164,2.064-1.9,1.285-3.271,2.2c-2.7,1.772-2.7,1.772-8.762,5.841-2.249,1.528-5.082,3.4-6.279,4.186-2.444,1.6-2.317,1.509-5.384,3.6-1.246.827-2.755,1.85-3.378,2.22a24.454,24.454,0,0,0-2.142,1.6c-.915.789-1.042.974-1.042,1.723a1.684,1.684,0,0,0,.282,1.071c.37.3,1.266.321,29.3.282h25.312l.234-.458a.681.681,0,0,0,0-.876c-.282-.438-.565-.458-25.117-.526-22.635,0-24.835-.088-25.156-.409-.526-.506-.243-.857,1.947-2.356,2.005-1.4,1.947-1.373,4.994-3.378,6.815-4.517,8.09-5.345,9.375-6.26.779-.565,2.044-1.441,2.833-1.947s2.444-1.606,3.709-2.463S142,39.716,142.48,39.4s1.334-.9,1.879-1.285c3.592-2.531,4.488-3.135,4.77-3.252s2.784-1.782,5.773-3.806l8.071-5.393c3.466-2.307,3.816-2.638,3.816-3.68,0-.652-.088-.827-.37-.808a15.488,15.488,0,0,0-2.969,1.772Z" transform="translate(-3.927 -0.56)" fill="#e84b20"/>
        <path id="Tracé_23" data-name="Tracé 23" d="M20.294,36.75a.974.974,0,0,0,.263,1.207c.136.088,3.816.175,8.2.175,7.048,0,8.09,0,9.025.37,2.336.857,2.463,3.427.243,4.712-.3.175-3.1.312-9.005.37-7.282.088-8.587.156-8.762.438-.3.458-.263.613.243,1.11s.584.438,8.976.37c8.109-.058,8.6-.088,9.531-.516a3.894,3.894,0,0,0,2.483-3.427c.195-1.811-.107-2.921-.974-3.8-1.392-1.3-1.042-1.266-10.9-1.334C20.975,36.361,20.5,36.38,20.294,36.75Z" transform="translate(-1.504 -0.963)" fill="#e84b20"/>
        <path id="Tracé_24" data-name="Tracé 24" d="M143.77,44.1c-.3.175-.759.438-1.042.565a.779.779,0,0,0-.438.613c.058.3,1.392.341,12.364.409,8.888,0,12.383,0,12.578-.195.409-.35.389-1.412,0-1.587-.195-.068-5.4-.136-11.595-.136C146.145,43.77,144.227,43.838,143.77,44.1Z" transform="translate(-4.739 -1.158)" fill="#e84b20"/>
        <path id="Tracé_25" data-name="Tracé 25" d="M135.873,49.142c-1.314.458-2.181,1.042-2.093,1.431s2.025.331,16.5.331c11.838,0,16.55-.088,16.715-.263a1.1,1.1,0,0,0,0-1.48c-.224-.156-4.712-.263-15.265-.282C138.862,48.811,136.681,48.86,135.873,49.142Z" transform="translate(-4.514 -1.293)" fill="#e84b20"/>
        <path id="Tracé_26" data-name="Tracé 26" d="M66.233,49.182a.974.974,0,0,0,0,1.314h0c.3.3,2.113.35,16.638.35,12.383,0,16.355-.068,16.55-.263a1.149,1.149,0,0,0,0-1.46C99.041,48.812,66.584,48.832,66.233,49.182Z" transform="translate(-2.719 -1.294)" fill="#e84b20"/>
        <path id="Tracé_27" data-name="Tracé 27" d="M66.34,54.315a1.032,1.032,0,0,0-.107,1.441h0c.419.35,32.769.35,33.207,0a.974.974,0,0,0,.088-1.266c-.175-.263-2.706-.321-16.55-.37C72.814,54.139,66.584,54.178,66.34,54.315Z" transform="translate(-2.72 -1.432)" fill="#e84b20"/>
        <path id="Tracé_28" data-name="Tracé 28" d="M127.167,54.315c-1.441.37-2.356,1.217-1.752,1.587.088.068,9.443.136,20.736.136,22.128,0,21,.088,20.892-1.09-.068-.458-.195-.565-1.051-.681C164.706,54.072,127.858,54.121,127.167,54.315Z" transform="translate(-4.288 -1.433)" fill="#e84b20"/>
        <path id="Tracé_29" data-name="Tracé 29" d="M66.32,59.64a1.256,1.256,0,0,0-.35.74c0,.915,0,.915,17.241.808l16.443-.107.068-.545c.107-1.227.974-1.158-16.706-1.227C67.537,59.251,66.671,59.27,66.32,59.64Z" transform="translate(-2.719 -1.569)" fill="#e84b20"/>
      </g>
      <g id="PRODUCTION" transform="translate(-2.041 58.899)">
        <text id="PRODUCTION-2" data-name="PRODUCTION" transform="translate(7 22)" fill="#e84b20" font-size="23" font-family="FranklinGothic-Medium, Franklin Gothic" font-weight="500" letter-spacing="0.11em"><tspan x="0" y="0">P</tspan><tspan y="0" letter-spacing="0.1em">R</tspan><tspan y="0">ODUCTION</tspan></text>
      </g>
    </g>
  </g>
</svg>
